<svg width="127" height="59" viewBox="0 0 127 59" fill="none" xmlns="http://www.w3.org/2000/svg">
<path d="M36.6624 11.4531V35.208C36.6624 38.984 35.4499 41.9788 33.0247 44.1924C30.6159 46.3896 27.4014 47.4883 23.3812 47.4883C19.3122 47.4883 16.0814 46.4059 13.6888 44.2412C11.2962 42.0602 10.0999 39.041 10.0999 35.1836V11.4531H16.2523V35.2324C16.2523 37.6087 16.8545 39.4235 18.0589 40.6768C19.2634 41.93 21.0374 42.5566 23.3812 42.5566C28.1338 42.5566 30.5101 40.0501 30.5101 35.0371V11.4531H36.6624Z" fill="url(#paint0_linear)"/>
<path d="M21.9277 25.4028C31.443 25.4028 39.1566 17.3315 39.1566 7.37499L4.69881 7.37499C4.69881 17.3315 12.4125 25.4028 21.9277 25.4028Z" fill="#F1E295"/>
<path d="M21.9277 25.4028L40.9177 50.6007H2.93776L21.9277 25.4028Z" fill="#F1E295"/>
<path d="M65.2348 35.2893H51.8315L48.8212 43.6389H44.4706L56.6874 11.6467H60.3788L72.6176 43.6389H68.289L65.2348 35.2893ZM53.1059 31.8176H63.9824L58.5331 16.8542L53.1059 31.8176ZM99.0507 11.6467V33.3996C99.0361 36.4172 98.0839 38.8855 96.1943 40.8044C94.3193 42.7234 91.7704 43.8 88.5478 44.0344L87.4272 44.0783C83.9262 44.0783 81.1357 43.1335 79.0556 41.2439C76.9755 39.3542 75.9208 36.7541 75.8915 33.4436V11.6467H80.0663V33.3117C80.0663 35.6262 80.7036 37.4279 81.978 38.717C83.2524 39.9914 85.0688 40.6286 87.4272 40.6286C89.8149 40.6286 91.6386 39.9914 92.8984 38.717C94.1728 37.4426 94.81 35.6482 94.81 33.3337V11.6467H99.0507ZM109.949 40.1892H125.11V43.6389H105.708V11.6467H109.949V40.1892Z" fill="white"/>
<defs>
<linearGradient id="paint0_linear" x1="22.7108" y1="0" x2="22.7108" y2="57.3611" gradientUnits="userSpaceOnUse">
<stop offset="0.522481" stop-color="#322D2D"/>
<stop offset="1" stop-color="#FFF500" stop-opacity="0"/>
</linearGradient>
</defs>
</svg>
