<svg width="29" height="28" viewBox="0 0 29 28" fill="none" xmlns="http://www.w3.org/2000/svg">
<path d="M8.7 22.4C7.105 22.4 5.8145 23.66 5.8145 25.2C5.8145 26.74 7.105 28 8.7 28C10.295 28 11.6 26.74 11.6 25.2C11.6 23.66 10.295 22.4 8.7 22.4ZM0 0V2.8H2.9L8.12 13.426L6.1625 16.856C5.9305 17.248 5.8 17.71 5.8 18.2C5.8 19.74 7.105 21 8.7 21H26.1V18.2H9.309C9.106 18.2 8.9465 18.046 8.9465 17.85L8.99 17.682L10.295 15.4H21.0975C22.185 15.4 23.142 14.826 23.635 13.958L28.826 4.872C28.942 4.676 29 4.438 29 4.2C29 3.43 28.3475 2.8 27.55 2.8H6.1045L4.7415 0H0ZM23.2 22.4C21.605 22.4 20.3145 23.66 20.3145 25.2C20.3145 26.74 21.605 28 23.2 28C24.795 28 26.1 26.74 26.1 25.2C26.1 23.66 24.795 22.4 23.2 22.4Z" fill="white"/>
</svg>
